<svg xmlns="http://www.w3.org/2000/svg" viewBox="0 0 520 360" fill="none">
  <rect width="520" height="360" rx="20" fill="#1A1208"/>
  <rect x="12" y="12" width="244" height="336" rx="14" fill="#FFF8ED"/>
  <rect x="264" y="12" width="244" height="336" rx="14" fill="#FFF8ED"/>
  <line x1="260" y1="12" x2="260" y2="348" stroke="#1A1208" stroke-width="2" opacity="0.15"/>
  <!-- left illustration -->
  <circle cx="134" cy="120" r="52" fill="#9B87D9" opacity="0.5"/>
  <ellipse cx="134" cy="200" rx="70" ry="28" fill="#1A6B4F" opacity="0.35"/>
  <rect x="78" y="230" width="112" height="64" rx="10" fill="#E85D4A" opacity="0.2"/>
  <path d="M100 160 Q134 100 168 160" stroke="#1A1208" stroke-width="3" fill="none" opacity="0.2"/>
  <!-- right text -->
  <rect x="288" y="48" width="180" height="10" rx="5" fill="#1A1208" opacity="0.12"/>
  <rect x="288" y="68" width="160" height="10" rx="5" fill="#1A1208" opacity="0.12"/>
  <rect x="288" y="88" width="196" height="10" rx="5" fill="#1A1208" opacity="0.08"/>
  <rect x="288" y="120" width="140" height="10" rx="5" fill="#1A1208" opacity="0.12"/>
  <rect x="288" y="140" width="180" height="10" rx="5" fill="#1A1208" opacity="0.12"/>
  <rect x="288" y="160" width="120" height="10" rx="5" fill="#1A1208" opacity="0.08"/>
  <rect x="288" y="220" width="80" height="28" rx="14" fill="#9B87D9"/>
  <text x="328" y="239" text-anchor="middle" font-family="sans-serif" font-size="11" font-weight="700" fill="#1A1208">Page 8</text>
</svg>
